<svg xmlns="http://www.w3.org/2000/svg" width="200" height="200" fill="none" viewBox="0 0 200 200"><path fill="url(#paint0_linear_119_318)" fill-rule="evenodd" d="M99.994 183.711C106.781 191.856 113.567 200 127.14 200c31.244 0 40.269-41.556 40.281-72.844 0-13.572 8.144-20.358 16.289-27.144C191.855 93.225 200 86.439 200 72.868c0-31.254-41.616-40.29-72.849-40.29-13.572 0-20.359-8.145-27.145-16.29C93.219 8.145 86.433 0 72.86 0 41.605 0 32.568 41.614 32.568 72.844c0 13.573-8.142 20.359-16.284 27.145C8.142 106.775 0 113.56 0 127.132c0 31.253 41.605 40.29 72.849 40.29 13.572 0 20.359 8.144 27.145 16.288ZM100 137c20.435 0 37-16.565 37-37 0-20.434-16.565-37-37-37-20.434 0-37 16.566-37 37 0 20.435 16.566 37 37 37Z" clip-rule="evenodd"></path><defs><linearGradient id="paint0_linear_119_318" x1="100" x2="100" y1="0" y2="200" gradientUnits="userSpaceOnUse"><stop stop-color="#DF99F7"></stop><stop offset="1" stop-color="#FFDBB0"></stop></linearGradient></defs></svg>