<svg width="287" height="100" viewBox="0 0 287 100" fill="none" xmlns="http://www.w3.org/2000/svg">
<g clip-path="url(#clip0_153_812)">
<rect y="25" width="50" height="50" rx="5" fill="#406BBF"/>
<path opacity="0.4" d="M15.4779 79.2459L6.6001 49.9391C16.2475 58.9196 23.1664 61.9425 27.234 62.7819C30.4881 63.4533 47.3581 44.5765 54.5249 35.1714V80L15.4779 79.2459Z" fill="#132039"/>
<path d="M57.3744 30.1624C59.2417 32.0297 59.2417 35.0572 57.3744 36.9245L31.6668 62.6322L24.9047 55.8701L50.6124 30.1624C52.4797 28.2951 55.5071 28.2951 57.3744 30.1624Z" fill="#9FB5DF"/>
<path d="M8.00056 45.726C9.86785 43.8588 12.8953 43.8588 14.7626 45.726L31.6677 62.6312L28.2867 66.0122C26.4194 67.8795 23.392 67.8795 21.5247 66.0122L8.00056 52.4881C6.13328 50.6208 6.13328 47.5933 8.00056 45.726Z" fill="#D9E1F2"/>
</g>
<path d="M74.016 67.265C70.976 67.265 68.608 66.497 66.912 64.961C65.216 63.393 64.368 61.073 64.368 58.001V35.345H71.856V57.905C71.856 58.993 72.144 59.841 72.72 60.449C73.296 61.025 74.08 61.313 75.072 61.313C76.256 61.313 77.264 60.993 78.096 60.353L80.112 65.633C79.344 66.177 78.416 66.593 77.328 66.881C76.272 67.137 75.168 67.265 74.016 67.265ZM60.384 47.393V41.633H78.288V47.393H60.384ZM95.8065 67.265C93.0545 67.265 90.6065 66.689 88.4625 65.537C86.3505 64.385 84.6705 62.817 83.4225 60.833C82.2065 58.817 81.5985 56.529 81.5985 53.969C81.5985 51.377 82.2065 49.089 83.4225 47.105C84.6705 45.089 86.3505 43.521 88.4625 42.401C90.6065 41.249 93.0545 40.673 95.8065 40.673C98.5265 40.673 100.959 41.249 103.103 42.401C105.247 43.521 106.927 45.073 108.143 47.057C109.359 49.041 109.967 51.345 109.967 53.969C109.967 56.529 109.359 58.817 108.143 60.833C106.927 62.817 105.247 64.385 103.103 65.537C100.959 66.689 98.5265 67.265 95.8065 67.265ZM95.8065 61.121C97.0545 61.121 98.1745 60.833 99.1665 60.257C100.159 59.681 100.943 58.865 101.519 57.809C102.095 56.721 102.383 55.441 102.383 53.969C102.383 52.465 102.095 51.185 101.519 50.129C100.943 49.073 100.159 48.257 99.1665 47.681C98.1745 47.105 97.0545 46.817 95.8065 46.817C94.5585 46.817 93.4385 47.105 92.4465 47.681C91.4545 48.257 90.6545 49.073 90.0465 50.129C89.4705 51.185 89.1825 52.465 89.1825 53.969C89.1825 55.441 89.4705 56.721 90.0465 57.809C90.6545 58.865 91.4545 59.681 92.4465 60.257C93.4385 60.833 94.5585 61.121 95.8065 61.121ZM126.06 67.265C123.628 67.265 121.436 66.721 119.484 65.633C117.532 64.513 115.98 62.961 114.828 60.977C113.708 58.993 113.148 56.657 113.148 53.969C113.148 51.249 113.708 48.897 114.828 46.913C115.98 44.929 117.532 43.393 119.484 42.305C121.436 41.217 123.628 40.673 126.06 40.673C128.236 40.673 130.14 41.153 131.772 42.113C133.404 43.073 134.668 44.529 135.564 46.481C136.46 48.433 136.908 50.929 136.908 53.969C136.908 56.977 136.476 59.473 135.612 61.457C134.748 63.409 133.5 64.865 131.868 65.825C130.268 66.785 128.332 67.265 126.06 67.265ZM127.356 61.121C128.572 61.121 129.676 60.833 130.668 60.257C131.66 59.681 132.444 58.865 133.02 57.809C133.628 56.721 133.932 55.441 133.932 53.969C133.932 52.465 133.628 51.185 133.02 50.129C132.444 49.073 131.66 48.257 130.668 47.681C129.676 47.105 128.572 46.817 127.356 46.817C126.108 46.817 124.988 47.105 123.996 47.681C123.004 48.257 122.204 49.073 121.596 50.129C121.02 51.185 120.732 52.465 120.732 53.969C120.732 55.441 121.02 56.721 121.596 57.809C122.204 58.865 123.004 59.681 123.996 60.257C124.988 60.833 126.108 61.121 127.356 61.121ZM134.124 66.881V61.601L134.268 53.921L133.788 46.289V31.265H141.276V66.881H134.124ZM160.494 67.265C157.742 67.265 155.294 66.689 153.15 65.537C151.038 64.385 149.358 62.817 148.11 60.833C146.894 58.817 146.286 56.529 146.286 53.969C146.286 51.377 146.894 49.089 148.11 47.105C149.358 45.089 151.038 43.521 153.15 42.401C155.294 41.249 157.742 40.673 160.494 40.673C163.214 40.673 165.646 41.249 167.79 42.401C169.934 43.521 171.614 45.073 172.83 47.057C174.046 49.041 174.654 51.345 174.654 53.969C174.654 56.529 174.046 58.817 172.83 60.833C171.614 62.817 169.934 64.385 167.79 65.537C165.646 66.689 163.214 67.265 160.494 67.265ZM160.494 61.121C161.742 61.121 162.862 60.833 163.854 60.257C164.846 59.681 165.63 58.865 166.206 57.809C166.782 56.721 167.07 55.441 167.07 53.969C167.07 52.465 166.782 51.185 166.206 50.129C165.63 49.073 164.846 48.257 163.854 47.681C162.862 47.105 161.742 46.817 160.494 46.817C159.246 46.817 158.126 47.105 157.134 47.681C156.142 48.257 155.342 49.073 154.734 50.129C154.158 51.185 153.87 52.465 153.87 53.969C153.87 55.441 154.158 56.721 154.734 57.809C155.342 58.865 156.142 59.681 157.134 60.257C158.126 60.833 159.246 61.121 160.494 61.121Z" fill="#406BBF"/>
<defs>
<clipPath id="clip0_153_812">
<rect y="25" width="50" height="50" rx="5" fill="white"/>
</clipPath>
</defs>
</svg>
